# AST/ASF file generated using VICON BodyLanguage
# -----------------------------------------------
:version 1.10
:name VICON
:units
  mass 1.0
  length 0.45
  angle deg
:documentation
   .ast/.asf automatically generated from VICON data using
   VICON BodyBuilder and BodyLanguage model FoxedUp or BRILLIANT.MOD
:root
   order TX TY TZ RX RY RZ
   axis XYZ
   position 0 0 0  
   orientation 0 -0 0 
:bonedata
  begin
     id 1 
     name lhipjoint
     direction 0.500677 -0.737119 0.453848 
     length 2.34727 
     axis 0 -0 0  XYZ
  end
  begin
     id 2 
     name lfemur
     direction 0.34202 -0.939693 0  
     length 7.53653  
     axis 0 -0 20  XYZ
    dof rx ry rz
    limits (-160.0 20.0)
           (-70.0 70.0)
           (-60.0 70.0)
  end
  begin
     id 3 
     name ltibia
     direction 0.34202 -0.939693 0   
     length 6.85572   
     axis 0 -0 20   XYZ
    dof rx
    limits (-10.0 170.0)
  end
  begin
     id 4 
     name lfoot
     direction 0.155313 -0.426718 0.890949   
     length 2.18324   
     axis -90 -1.13533e-015 20   XYZ
    dof rx rz
    limits (-45.0 90.0)
           (-70.0 20.0)
  end
  begin
     id 5 
     name ltoes
     direction 1.53474e-011 -4.21647e-011 1   
     length 1.06748   
     axis -90 -1.13533e-015 20   XYZ
    dof rx
    limits (-90.0 20.0)
  end
  begin
     id 6 
     name rhipjoint
     direction -0.632471 -0.659587 0.406111   
     length 2.62319  
     axis 0 -0 0  XYZ 
  end
  begin
     id 7 
     name rfemur
     direction -0.34202 -0.939693 0   
     length 7.21735   
     axis 0 -0 -20   XYZ
    dof rx ry rz
    limits (-160.0 20.0)
           (-70.0 70.0)
           (-70.0 60.0)
  end
  begin
     id 8 
     name rtibia
     direction -0.34202 -0.939693 0   
     length 7.02558   
     axis 0 -0 -20   XYZ
    dof rx
    limits (-10.0 170.0)
 end
 begin
     id 9 
     name rfoot
     direction -0.16057 -0.441164 0.882945   
     length 2.10014  
     axis -90 1.13533e-015 -20   XYZ
    dof rx rz
    limits (-45.0 90.0)
           (-20.0 70.0)
  end
  begin
     id 10 
     name rtoes
     direction -1.53553e-011 -4.2192e-011 1   
     length 1.02554   
     axis -90 1.13533e-015 -20   XYZ
    dof rx
    limits (-90.0 20.0)
  end
  begin
     id 11 
     name lowerback
     direction 0.0401429 0.998861 -0.0258085   
     length 1.80848   
     axis 0 -0 0   XYZ
    dof rx ry rz
    limits (-20.0 45.0)
           (-30.0 30.0)
           (-30.0 30.0)
  end
  begin
     id 12 
     name upperback
     direction -0.0130978 0.999914 -0.000352645   
     length 1.8116   
     axis 0 -0 0   XYZ
    dof rx ry rz
    limits (-20.0 45.0)
           (-30.0 30.0)
           (-30.0 30.0)
  end
  begin
     id 13 
     name thorax
     direction -0.0300198 0.999453 0.0138573   
     length 1.81778   
     axis 0 -0 0   XYZ
    dof rx ry rz
    limits (-20.0 45.0)
           (-30.0 30.0)
           (-30.0 30.0)
  end
  begin
     id 14 
     name lowerneck
     direction -0.0401726 0.999191 -0.00173647   
     length 2.10594   
     axis 0 -0 0   XYZ
    dof rx ry rz
    limits (-20.0 45.0)
           (-30.0 30.0)
           (-30.0 30.0)
  end
  begin
     id 15 
     name upperneck
     direction 0.0119835 0.998501 0.0534085   
     length 2.07325   
     axis 0 -0 0   XYZ
    dof rx ry rz
    limits (-20.0 45.0)
           (-30.0 30.0)
           (-30.0 30.0)
  end
  begin
     id 16
     name head
     direction 0.00628309 0.999826 0.0175921  
     length 2.15096  
     axis 0 -0 0   XYZ
    dof rx ry rz
    limits (-20.0 45.0)
           (-30.0 30.0)
           (-30.0 30.0)
  end
  begin
     id 17 
     name lclavicle
     direction 0.895501 0.429681 -0.115981  
     length 4.18092  
     axis 0 -0 0   XYZ
    dof ry rz
    limits (-20.0 10.0)
           (0.0 20.0)
  end
  begin
     id 18 
     name lhumerus
     direction 1 -4.48961e-011 -3.38433e-028   
     length 5.77237   
     axis 180 -30 -90   XYZ
    dof rx ry rz
    limits (-60.0 90.0)
           (-90.0 90.0)
           (-90.0 90.0)
  end
  begin
     id 19
     name lradius
     direction 1 -4.4901e-011 1.11983e-026   
     length 2.91878   
     axis 180 -30 -90   XYZ
    dof rx
    limits (-10.0 170.0)
  end
  begin
     id 20
     name lwrist
     direction 1 -4.48934e-011 1.88176e-026   
     length 1.45939   
     axis -1.23311e-014 90 90   XYZ
    dof ry
    limits (-180.0 0.0)
 end
  begin
     id 21 
     name lhand
     direction 1 -4.4895e-011 3.76352e-026   
     length 1.06566   
     axis -2.40147e-014 90 90   XYZ
    dof rx rz
    limits (-90.0 90.0)
           (-45.0 45.0)
  end
  begin
     id 22 
     name lfingers
     direction 1 -4.49005e-011 7.52705e-026   
     length 0.859162   
     axis -4.80295e-014 90 90   XYZ
    dof rx
    limits (0.0 90.0)
  end
  begin
     id 23
     name lthumb
     direction 0.707107 -6.34885e-011 0.707107   
     length 1.23359   
     axis -90 45 -9.86935e-015   XYZ
    dof rx rz
    limits (-45.0 45.0)
           (-45.0 45.0)
  end
  begin
     id 24 
     name rclavicle
     direction -0.91006 0.40451 -0.0903492   
     length 4.23293  
     axis 0 -0 0   XYZ 
    dof ry rz
    limits (-10.0 20.0)
           (-20.0 0.0)
  end
  begin
     id 25 
     name rhumerus
     direction -1 -4.4897e-011 1.7415e-027  
     length 5.49854   
     axis 180 30 90   XYZ
    dof rx ry rz
    limits (-90.0 60.0)
           (-90.0 90.0)
           (-90.0 90.0)
  end
  begin
     id 26 
     name rradius
     direction -1 -4.48963e-011 1.21259e-026   
     length 3.1186   
     axis 180 30 90   XYZ
    dof rx
    limits (-10.0 170.0)
  end
  begin
     id 27 
     name rwrist
     direction -1 -4.48967e-011 1.88176e-026   
     length 1.5593   
     axis -1.23311e-014 -90 -90   XYZ
    dof ry
    limits (-180.0 0.0)
  end
  begin
     id 28
     name rhand
     direction -1 -4.4895e-011 3.76352e-026   
     length 0.71207   
     axis -2.40147e-014 -90 -90   XYZ
    dof rx rz
    limits (-90.0 90.0)
           (-45.0 45.0)
  end
  begin
     id 29
     name rfingers
     direction -1 -4.49005e-011 7.52705e-026   
     length 0.574089   
     axis -4.80295e-014 -90 -90   XYZ
    dof rx
    limits (0.0 90.0)
  end
  begin
     id 30
     name rthumb
     direction -0.707107 -6.34982e-011 0.707107   
     length 0.824281   
     axis -90 -45 9.86935e-015   XYZ
    dof rx rz
    limits (-45.0 45.0)
           (-45.0 45.0)
  end
:hierarchy
  begin
    root lhipjoint rhipjoint lowerback
    lhipjoint lfemur
    lfemur ltibia
    ltibia lfoot
    lfoot ltoes
    rhipjoint rfemur
    rfemur rtibia
    rtibia rfoot
    rfoot rtoes
    lowerback upperback
    upperback thorax
    thorax lowerneck lclavicle rclavicle
    lowerneck upperneck
    upperneck head
    lclavicle lhumerus
    lhumerus lradius
    lradius lwrist
    lwrist lhand lthumb
    lhand lfingers
    rclavicle rhumerus
    rhumerus rradius
    rradius rwrist
    rwrist rhand rthumb
    rhand rfingers
  end

#!OML:ASF C:\ViconDB\ViconDB\414\Spring2016\042216\male.ASF
:FULLY-SPECIFIED
:DEGREES
339
root 14.667 16.9678 8.03394 -180.502 -9.88565 -184.13
lowerback 14.188 -3.65658 5.84396
upperback 2.83586 -4.36331 -1.23282
thorax -5.44887 -2.38226 -3.76107
lowerneck 6.18727 -4.19717 -11.128
upperneck -17.9136 -6.4306 9.32482
head -5.72584 -3.49114 5.25905
rclavicle -1.90833e-014 -1.55052e-014
rhumerus -20.4418 -9.52608 -51.7219
rradius 46.4875
rwrist 10.6093
rhand -5.1065 -31.1595
rfingers 7.12502
rthumb 20.6911 -60.0765
lclavicle -1.90833e-014 -1.55052e-014
lhumerus -46.5573 36.3385 28.7139
lradius 52.4916
lwrist 29.3512
lhand -39.1465 17.136
lfingers 7.12502
lthumb -12.1449 46.7634
rfemur -10.2784 11.4751 20.0939
rtibia 36.6137
rfoot -20.3973 -11.0218
rtoes -22.27
lfemur -71.7766 11.2212 -11.4482
ltibia 106.765
lfoot -26.6618 15.6886
ltoes -8.40276
340
root 14.8419 17.0439 7.99095 -180.584 -11.0601 -183.68
lowerback 13.7237 -3.62384 5.74365
upperback 2.69634 -4.32562 -1.11571
thorax -5.32398 -2.35012 -3.60947
lowerneck 6.07182 -4.30584 -11.3828
upperneck -17.8713 -6.58241 9.41664
head -5.6639 -3.55399 5.32916
rclavicle 2.88238e-014 -5.56597e-015
rhumerus -20.4518 -9.64113 -50.7186
rradius 47.459
rwrist 9.16713
rhand -4.90889 -31.1752
rfingers 7.12502
rthumb 20.8809 -60.0714
lclavicle 2.88238e-014 -5.56597e-015
lhumerus -46.0053 36.4071 26.913
lradius 52.7318
lwrist 28.9129
lhand -38.3471 16.7089
lfingers 7.12502
lthumb -11.374 46.3805
rfemur -8.83702 11.2564 21.3634
rtibia 34.1938
rfoot -19.1742 -11.6151
rtoes -21.4892
lfemur -70.6033 10.7305 -12.3875
ltibia 107.138
lfoot -27.0821 14.7832
ltoes -8.61923
341
root 15.0235 17.1576 7.93932 -180.671 -12.4225 -183.223
lowerback 13.3821 -3.65629 5.46071
upperback 2.4345 -4.38179 -1.00654
thorax -5.39378 -2.36425 -3.33479
lowerneck 6.05641 -4.46353 -11.4363
upperneck -17.7197 -6.79205 9.37891
head -5.59085 -3.64351 5.32473
rclavicle -2.14687e-014 1.03368e-014
rhumerus -20.536 -9.85758 -49.6032
rradius 48.1856
rwrist 8.25406
rhand -5.04545 -31.0302
rfingers 7.12502
rthumb 20.7497 -59.9408
lclavicle -2.14687e-014 1.03368e-014
lhumerus -45.3525 35.8995 25.2517
lradius 53.2662
lwrist 28.6054
lhand -37.8151 16.7412
lfingers 7.12502
lthumb -10.8609 46.4403
rfemur -7.01434 11.0499 22.6454
rtibia 30.964
rfoot -17.5528 -12.2566
rtoes -20.4675
lfemur -69.3655 10.0428 -13.2322
ltibia 107.312
lfoot -27.491 13.4855
ltoes -8.07661
342
root 15.2068 17.2773 7.87918 -180.857 -13.8559 -182.699
lowerback 12.9322 -3.59136 5.16042
upperback 2.22688 -4.31977 -0.840738
thorax -5.32705 -2.31749 -3.02226
lowerneck 5.92987 -4.7238 -11.7133
upperneck -17.3489 -7.11619 9.50587
head -5.40169 -3.78368 5.39711
rclavicle -1.3418e-015 3.18055e-015
rhumerus -20.8055 -10.2627 -48.0651
rradius 48.9388
rwrist 7.35269
rhand -5.32098 -31.2185
rfingers 7.12502
rthumb 20.485 -60.1579
lclavicle -1.3418e-015 3.18055e-015
lhumerus -44.4049 34.8215 24.275
lradius 54.2745
lwrist 28.6333
lhand -37.5315 17.0058
lfingers 7.12502
lthumb -10.5874 46.7191
rfemur -4.80252 11.0686 24.0144
rtibia 27.0498
rfoot -14.9706 -12.9001
rtoes -21.5339
lfemur -67.8226 9.39078 -14.024
ltibia 107.428
lfoot -27.8389 12.4597
ltoes -7.62617
343
root 15.3848 17.4031 7.81917 -181.028 -15.4371 -181.97
lowerback 12.2962 -3.59323 5.01077
upperback 2.0517 -4.33697 -0.669461
thorax -5.14015 -2.31045 -2.786
lowerneck 5.81156 -4.98434 -11.7079
upperneck -16.9133 -7.43352 9.43365
head -5.21449 -3.9221 5.35602
rclavicle 2.28105e-014 -1.31198e-014
rhumerus -20.8755 -11.1397 -46.5517
rradius 49.3354
rwrist 6.74449
rhand -5.44336 -31.2988
rfingers 7.12502
rthumb 20.3674 -60.2507
lclavicle 2.28105e-014 -1.31198e-014
lhumerus -43.2663 33.9042 23.2499
lradius 55.2747
lwrist 28.8859
lhand -37.6087 17.2297
lfingers 7.12502
lthumb -10.6619 46.9392
rfemur -2.76198 11.2558 25.5435
rtibia 23.223
rfoot -12.7297 -13.8118
rtoes -20.7272
lfemur -66.2473 8.62023 -14.5395
ltibia 107.457
lfoot -28.1486 11.6814
ltoes -8.34944
344
root 15.5588 17.5397 7.75801 -181.353 -17.1024 -181.195
lowerback 11.7676 -3.63824 4.90232
upperback 1.90312 -4.40643 -0.506526
thorax -4.99103 -2.33273 -2.5684
lowerneck 5.75434 -5.30948 -11.827
upperneck -16.4442 -7.83072 9.5289
head -5.00557 -4.10513 5.38998
rclavicle 1.06847e-014 -5.96354e-016
rhumerus -20.9973 -12.1582 -44.8878
rradius 49.6581
rwrist 6.52291
rhand -5.34952 -31.357
rfingers 7.12502
rthumb 20.4576 -60.2993
lclavicle 1.06847e-014 -5.96354e-016
lhumerus -42.0779 33.1307 22.2147
lradius 56.396
lwrist 29.1103
lhand -37.6445 17.6396
lfingers 7.12502
lthumb -10.6964 47.3473
rfemur -0.368787 12.0918 27.045
rtibia 18.8094
rfoot -9.9827 -14.8589
rtoes -19.2273
lfemur -64.406 7.68195 -14.8768
ltibia 107.321
lfoot -28.3885 10.9185
ltoes -9.03304
345
root 15.7096 17.5564 7.68951 -181.653 -19.012 -180.437
lowerback 10.8538 -3.7357 4.76838
upperback 1.87897 -4.57791 -0.368549
thorax -4.50442 -2.40012 -2.37677
lowerneck 5.45253 -5.68382 -11.8466
upperneck -15.7813 -8.27345 9.51381
head -4.70103 -4.3084 5.35297
rclavicle 4.14715e-014 -2.5842e-015
rhumerus -21.0148 -13.426 -43.193
rradius 49.7766
rwrist 6.29953
rhand -5.3748 -31.2457
rfingers 7.12502
rthumb 20.4333 -60.1906
lclavicle 4.14715e-014 -2.5842e-015
lhumerus -40.5216 32.4445 21.4856
lradius 57.5591
lwrist 29.8134
lhand -37.6103 17.7205
lfingers 7.12502
lthumb -10.6634 47.4299
rfemur 2.2107 12.379 28.4176
rtibia 13.8461
rfoot -6.37144 -15.6998
rtoes -18.9709
lfemur -63.4488 6.37083 -15.1573
ltibia 107.717
lfoot -28.3422 9.75508
ltoes -9.47999
346
root 15.8617 17.7124 7.62936 -181.978 -20.836 -179.626
lowerback 9.90262 -3.84818 4.86132
upperback 1.88185 -4.75079 -0.241637
thorax -3.98569 -2.47255 -2.33196
lowerneck 5.11107 -5.99487 -12.183
upperneck -15.002 -8.61901 9.75799
head -4.33833 -4.46407 5.43589
rclavicle 3.34579e-014 1.59028e-015
rhumerus -20.8249 -14.9083 -41.5237
rradius 49.8424
rwrist 5.69799
rhand -5.55987 -31.7157
rfingers 7.12502
rthumb 20.2554 -60.6796
lclavicle 3.34579e-014 1.59028e-015
lhumerus -38.8953 32.5686 20.7049
lradius 58.4551
lwrist 30.2204
lhand -37.6356 17.6055
lfingers 7.12502
lthumb -10.6877 47.3137
rfemur 5.32635 9.77515 29.3002
rtibia 7.23056
rfoot -1.50843 -13.4206
rtoes -19.4331
lfemur -61.5803 5.05339 -15.4096
ltibia 107.194
lfoot -28.4822 8.9936
ltoes -9.43225
347
root 15.9967 17.8679 7.58001 -182.34 -22.519 -178.62
lowerback 8.9814 -3.94336 5.37607
upperback 1.85518 -4.86393 -0.147418
thorax -3.54596 -2.52181 -2.56477
lowerneck 4.68246 -6.3935 -12.4327
upperneck -13.9818 -9.07107 9.89791
head -3.88611 -4.66854 5.45613
rclavicle 3.4222e-014 -1.33186e-014
rhumerus -20.6526 -16.1265 -39.8526
rradius 49.8798
rwrist 4.86212
rhand -5.65713 -32.0984
rfingers 7.12502
rthumb 20.1619 -61.0722
lclavicle 3.4222e-014 -1.33186e-014
lhumerus -37.2719 32.6242 20.0579
lradius 59.5572
lwrist 30.8784
lhand -37.3404 17.0897
lfingers 7.12502
lthumb -10.403 46.8123
rfemur 8.42561 7.34036 29.8915
rtibia 3.18055e-015
rfoot 4.26076 -11.1816
rtoes -19.3249
lfemur -59.5755 3.83195 -15.5354
ltibia 106.381
lfoot -28.4859 8.71701
ltoes -9.22073
348
root 16.1268 18.0367 7.53385 -182.698 -24.0413 -177.341
lowerback 7.87729 -3.99011 5.99776
upperback 1.91272 -4.93492 0.159471
thorax -2.90325 -2.54573 -2.6613
lowerneck 4.15306 -6.71901 -12.7895
upperneck -13.2855 -9.45578 9.9612
head -3.52449 -4.83776 5.47662
rclavicle 1.45548e-014 4.17448e-015
rhumerus -20.0922 -17.1861 -38.0884
rradius 49.8637
rwrist 4.12752
rhand -5.53213 -32.6862
rfingers 7.12502
rthumb 20.2821 -61.6472
lclavicle 1.45548e-014 4.17448e-015
lhumerus -35.8372 33.0795 19.5901
lradius 60.6456
lwrist 30.9598
lhand -36.9118 16.8637
lfingers 7.12502
lthumb -9.98955 46.6066
rfemur 7.66255 5.083 30.7035
rtibia 4.77083e-015
rfoot 6.79777 -9.41419
rtoes -18.7527
lfemur -57.7182 2.89237 -15.268
ltibia 105.207
lfoot -28.0864 8.2045
ltoes -8.71489
349
root 16.2598 18.1818 7.4937 -183.077 -25.3341 -175.961
lowerback 7.33728 -4.05473 7.01582
upperback 1.54374 -4.94609 0.190365
thorax -3.07041 -2.56316 -3.2117
lowerneck 4.09779 -6.99026 -12.7232
upperneck -12.3237 -9.76601 9.92587
head -3.19514 -4.97906 5.40937
rclavicle -7.87125e-014 5.56597e-015
rhumerus -20.1433 -17.6466 -36.6177
rradius 50.0562
rwrist 3.83951
rhand -5.00413 -32.8741
rfingers 7.12502
rthumb 20.7894 -61.7804
lclavicle -7.87125e-014 5.56597e-015
lhumerus -34.4647 32.6989 18.7402
lradius 61.6627
lwrist 31.3456
lhand -36.753 16.5719
lfingers 7.12502
lthumb -9.83638 46.3221
rfemur 6.82429 3.04849 31.6805
rtibia 2.38542e-015
rfoot 9.85144 -7.84494
rtoes -21.0278
lfemur -55.9534 2.35939 -14.8654
ltibia 103.83
lfoot -27.3537 8.18164
ltoes -9.29777
350
root 16.3946 18.3226 7.45676 -183.431 -26.3179 -174.798
lowerback 6.51351 -3.98898 7.60003
upperback 1.50495 -4.87916 0.309917
thorax -2.6815 -2.52238 -3.47424
lowerneck 3.51018 -7.07562 -12.793
upperneck -11.5285 -9.79306 10.0343
head -2.84681 -4.98486 5.39096
rclavicle -1.47473e-014 -1.80894e-014
rhumerus -19.5883 -18.1833 -35.2537
rradius 50.2165
rwrist 3.66617
rhand -4.68497 -33.0303
rfingers 7.12502
rthumb 21.0961 -61.9027
lclavicle -1.47473e-014 -1.80894e-014
lhumerus -32.9196 32.5431 18.5633
lradius 62.7468
lwrist 32.4226
lhand -37.5109 15.8217
lfingers 7.12502
lthumb -10.5675 45.536
rfemur 5.93468 1.32376 32.3162
rtibia 1.03368e-014
rfoot 13.1319 -6.22847
rtoes -22.4168
lfemur -53.9482 2.09115 -14.499
ltibia 102.134
lfoot -26.4207 8.06869
ltoes -9.55362
351
root 16.5332 18.4728 7.4259 -183.697 -27.0565 -173.798
lowerback 5.78001 -3.85504 8.00686
upperback 1.44712 -4.73504 0.444927
thorax -2.33599 -2.44229 -3.62237
lowerneck 3.21807 -7.28179 -12.9467
upperneck -10.9129 -10.0352 10.0095
head -2.58182 -5.09117 5.36534
rclavicle 2.84014e-014 -1.63003e-014
rhumerus -18.979 -18.155 -33.9087
rradius 50.6439
rwrist 3.42295
rhand -4.07571 -33.2983
rfingers 7.12502
rthumb 21.6813 -62.1042
lclavicle 2.84014e-014 -1.63003e-014
lhumerus -31.7996 32.4499 18.2459
lradius 63.6961
lwrist 32.7298
lhand -37.5472 14.9669
lfingers 7.12502
lthumb -10.6025 44.6795
rfemur 5.1503 -0.142455 32.6119
rtibia 3.97569e-015
rfoot 15.7348 -4.27958
rtoes -22.9528
lfemur -51.8455 2.20776 -14.1902
ltibia 100.142
lfoot -25.0518 8.01352
ltoes -8.87014
352
root 16.6727 18.6238 7.40125 -183.873 -27.692 -172.878
lowerback 5.0506 -3.74369 8.33144
upperback 1.39432 -4.63375 0.582368
thorax -1.98455 -2.38193 -3.716
lowerneck 3.20611 -7.47228 -12.9242
upperneck -10.751 -10.3029 9.78127
head -2.51727 -5.21364 5.28246
rclavicle -1.2424e-014 1.45113e-014
rhumerus -18.0113 -17.8279 -32.7434
rradius 50.9145
rwrist 3.2156
rhand -3.65896 -32.942
rfingers 7.12502
rthumb 22.0814 -61.7012
lclavicle -1.2424e-014 1.45113e-014
lhumerus -31.1357 32.066 17.894
lradius 64.6779
lwrist 32.5669
lhand -37.7328 14.1928
lfingers 7.12502
lthumb -10.7816 43.8961
rfemur 4.41052 -1.49402 32.7602
rtibia 8.74653e-015
rfoot 18.1591 -1.88303
rtoes -22.9838
lfemur -49.8814 2.47931 -13.9088
ltibia 97.8617
lfoot -23.4614 7.86045
ltoes -8.8025
